<?xml version="1.0" encoding="UTF-8"?>
<svg width="202px" height="48px" viewBox="0 0 202 48" version="1.1" xmlns="http://www.w3.org/2000/svg" xmlns:xlink="http://www.w3.org/1999/xlink">
    <title>logo</title>
    <defs>
        <linearGradient x1="88.9956204%" y1="0%" x2="50%" y2="100%" id="linearGradient-1">
            <stop stop-color="#05BDFC" offset="0%"></stop>
            <stop stop-color="#0245F8" offset="100%"></stop>
        </linearGradient>
    </defs>
    <g id="页面-1" stroke="none" stroke-width="1" fill="none" fill-rule="evenodd">
        <g id="logo">
            <g id="编组-2" transform="translate(57, 0)">
                <path d="M11.8838048,44.7215765 L11.7930242,44.7686809 C7.55568168,46.9573078 4.25550616,47.5475506 2.71438251,46.0593048 C1.16282079,44.560979 1.65449055,41.2072545 3.72903432,36.8534167 L11.8838048,44.7215765 Z" id="路径" fill="#E2E403"></path>
                <path d="M35.7201356,3.05137958 L36.0083108,2.88789413 C40.8093406,0.187594865 44.5839835,-0.662437479 46.2652093,0.961103402 C47.9807914,2.61782174 47.1983158,6.54295317 44.5401152,11.5802832 L35.7201356,3.05137958 Z" id="路径" fill="#FC8A15"></path>
                <path d="M24,0 C32.7088859,0 40.3343617,4.63863011 44.5405244,11.5799874 C41.7677017,16.8320632 36.9651071,23.2832416 30.8317305,29.6345391 C24.1347799,36.5694345 17.2634512,41.9228725 11.8840655,44.7217293 C11.9924909,44.7852622 12.1014595,44.8479685 12.2109624,44.9098395 C4.92117337,40.7909957 0,32.9701986 0,24 C0,10.745166 10.745166,0 24,0 Z" id="形状结合" fill="#FFFFFF"></path>
                <path d="M44.5401628,11.5793907 C46.735959,15.2028373 48,19.4538023 48,24 C48,37.254834 37.254834,48 24,48 C19.580614,48 15.4402198,46.8054938 11.8840655,44.7217293 C17.2634512,41.9228725 24.1347799,36.5694345 30.8317305,29.6345391 C36.9651071,23.2832416 41.7677017,16.8320632 44.5370033,11.5861791 Z" id="形状结合" fill="url(#linearGradient-1)"></path>
            </g>
            <path d="M48,0 L48,48 L17.6210893,23.9256626 C17.1882418,23.5826445 16.5592783,23.6554656 16.2162602,24.0883131 C16.0762102,24.2650393 16,24.4839115 16,24.7094024 L16,48 L16,48 L0,48 L0,0 L30.3789408,24.0724625 C30.8118015,24.4154641 31.4407621,24.3426188 31.7837636,23.9097581 C31.9237987,23.7330369 32,23.5141766 32,23.2886989 L32,0 L32,0 L48,0 Z" id="路径" fill="#FFFFFF"></path>
            <path d="M129,48 L111,0 L127,0 L138.063667,29.5040345 C138.257582,30.0211569 138.833992,30.2831683 139.351114,30.0892535 C139.621545,29.987845 139.834924,29.7744656 139.936333,29.5040345 L151,0 L151,0 L159,0 L141,48 L129,48 Z" id="路径" fill="#FFFFFF"></path>
            <g id="编组" transform="translate(178, 24) rotate(-180) translate(-178, -24)translate(154, 0)" fill="#FFFFFF">
                <path d="M18,48 L0,0 L16,0 L27.0636672,29.5040345 C27.257582,30.0211569 27.8339915,30.2831683 28.3511138,30.0892535 C28.6215449,29.987845 28.8349243,29.7744656 28.9363328,29.5040345 L40,0 L40,0 L48,0 L30,48 L18,48 Z" id="路径"></path>
            </g>
            <path d="M171.666667,39.3333333 C169.916667,37.5833333 167,38.1666667 167,37 L167.00842,36.8956273 C167.181152,35.867513 169.971354,36.3619792 171.666667,34.6666667 C173.416667,32.9166667 172.833333,30 174,30 C175.166667,30 174.583333,32.9166667 176.333333,34.6666667 C178.083333,36.4166667 181,35.8333333 181,37 L180.99158,37.1043727 C180.818848,38.132487 178.028646,37.6380208 176.333333,39.3333333 C174.583333,41.0833333 175.166667,44 174,44 C172.833333,44 173.416667,41.0833333 171.666667,39.3333333 Z" id="形状结合" fill="#FFFFFF"></path>
        </g>
    </g>
</svg>